<svg width="74" height="51" viewBox="0 0 74 51" fill="none" xmlns="http://www.w3.org/2000/svg">
<path d="M71.1452 13.849C70.3665 13.0663 69.4405 12.4456 68.4205 12.0229C67.4005 11.6002 66.3068 11.3838 65.2027 11.3863H48.3924C47.6494 11.3863 46.9368 11.6815 46.4113 12.2069C45.8859 12.7324 45.5907 13.445 45.5907 14.1881C45.5907 14.9311 45.8859 15.6437 46.4113 16.1692C46.9368 16.6946 47.6494 16.9898 48.3924 16.9898H65.2027C65.9458 16.9898 66.6584 17.285 67.1839 17.8104C67.7093 18.3358 68.0045 19.0484 68.0045 19.7915V36.6018C68.0045 37.3448 67.7093 38.0575 67.1839 38.5829C66.6584 39.1083 65.9458 39.4035 65.2027 39.4035H9.16842C8.42536 39.4035 7.71273 39.1083 7.18731 38.5829C6.66189 38.0575 6.3667 37.3448 6.3667 36.6018V19.7915C6.3667 19.0484 6.66189 18.3358 7.18731 17.8104C7.71273 17.285 8.42536 16.9898 9.16842 16.9898H12.2531C12.9474 20.3912 14.88 23.4136 17.6761 25.4711C20.4722 27.5286 23.9327 28.4746 27.3866 28.1257C30.8406 27.7768 34.042 26.1578 36.3701 23.5826C38.6982 21.0075 39.9872 17.6596 39.9872 14.1881C39.9872 10.7165 38.6982 7.36863 36.3701 4.79347C34.042 2.21831 30.8406 0.599333 27.3866 0.250412C23.9327 -0.0985089 20.4722 0.847486 17.6761 2.90499C14.88 4.9625 12.9474 7.98494 12.2531 11.3863H9.16842C6.93924 11.3863 4.80135 12.2719 3.22508 13.8482C1.64881 15.4244 0.763272 17.5623 0.763272 19.7915V36.6018C0.755248 38.3383 1.29141 40.0336 2.29645 41.4497C3.30148 42.8658 4.72488 43.9315 6.3667 44.497V47.8087C6.3667 48.5517 6.66189 49.2643 7.18731 49.7898C7.71273 50.3152 8.42536 50.6104 9.16842 50.6104C9.91148 50.6104 10.6241 50.3152 11.1495 49.7898C11.675 49.2643 11.9701 48.5517 11.9701 47.8087V45.0069H62.401V47.8087C62.401 48.5517 62.6962 49.2643 63.2216 49.7898C63.7471 50.3152 64.4597 50.6104 65.2027 50.6104C65.9458 50.6104 66.6584 50.3152 67.1839 49.7898C67.7093 49.2643 68.0045 48.5517 68.0045 47.8087V44.497C69.6463 43.9315 71.0697 42.8658 72.0747 41.4497C73.0798 40.0336 73.6159 38.3383 73.6079 36.6018V19.7915C73.6104 18.6874 73.3941 17.5937 72.9714 16.5738C72.5487 15.5538 71.928 14.6277 71.1452 13.849ZM25.9787 5.78291C27.6411 5.78291 29.2661 6.27586 30.6484 7.19943C32.0306 8.123 33.1079 9.43571 33.7441 10.9715C34.3802 12.5074 34.5467 14.1974 34.2224 15.8278C33.898 17.4583 33.0975 18.9559 31.9221 20.1314C30.7466 21.3069 29.2489 22.1074 27.6185 22.4317C25.988 22.756 24.298 22.5896 22.7622 21.9534C21.2264 21.3172 19.9137 20.2399 18.9901 18.8577C18.0665 17.4755 17.5736 15.8504 17.5736 14.1881C17.5758 11.9596 18.462 9.82297 20.0378 8.24718C21.6136 6.67139 23.7502 5.78513 25.9787 5.78291Z" fill="url(#paint0_linear_1_10697)"/>
<path d="M48.3925 33.8001C49.1356 33.8001 49.8482 33.5049 50.3737 32.9795C50.8991 32.454 51.1943 31.7414 51.1943 30.9983V25.3949C51.1943 24.6519 50.8991 23.9392 50.3737 23.4138C49.8482 22.8884 49.1356 22.5932 48.3925 22.5932C47.6495 22.5932 46.9368 22.8884 46.4114 23.4138C45.886 23.9392 45.5908 24.6519 45.5908 25.3949V30.9983C45.5908 31.7414 45.886 32.454 46.4114 32.9795C46.9368 33.5049 47.6495 33.8001 48.3925 33.8001ZM62.4011 30.9983V25.3949C62.4011 24.6519 62.1059 23.9392 61.5805 23.4138C61.0551 22.8884 60.3425 22.5932 59.5994 22.5932C58.8563 22.5932 58.1437 22.8884 57.6183 23.4138C57.0929 23.9392 56.7977 24.6519 56.7977 25.3949V30.9983C56.7977 31.7414 57.0929 32.454 57.6183 32.9795C58.1437 33.5049 58.8563 33.8001 59.5994 33.8001C60.3425 33.8001 61.0551 33.5049 61.5805 32.9795C62.1059 32.454 62.4011 31.7414 62.4011 30.9983Z" fill="url(#paint1_linear_1_10697)"/>
<defs>
<linearGradient id="paint0_linear_1_10697" x1="37.1856" y1="0.179443" x2="38.7865" y2="60.6165" gradientUnits="userSpaceOnUse">
<stop stop-color="#5F44F3"/>
<stop offset="1" stop-color="white"/>
</linearGradient>
<linearGradient id="paint1_linear_1_10697" x1="53.996" y1="22.5932" x2="54.3386" y2="36.0243" gradientUnits="userSpaceOnUse">
<stop stop-color="#5F44F3"/>
<stop offset="1" stop-color="white"/>
</linearGradient>
</defs>
</svg>
