<svg width="56" height="56" viewBox="0 0 56 56" fill="none" xmlns="http://www.w3.org/2000/svg">
<path d="M19.2778 34.4508C19.2778 36.152 19.7823 37.8149 20.7274 39.2294C21.6725 40.6439 23.0158 41.7463 24.5875 42.3973C26.1592 43.0483 27.8886 43.2187 29.5571 42.8868C31.2256 42.5549 32.7581 41.7357 33.961 40.5328C35.1639 39.3299 35.9831 37.7973 36.315 36.1288C36.6469 34.4604 36.4766 32.7309 35.8256 31.1593C35.1746 29.5876 34.0721 28.2443 32.6576 27.2992C31.2432 26.354 29.5802 25.8496 27.8791 25.8496C25.5987 25.8523 23.4125 26.7594 21.8001 28.3718C20.1876 29.9843 19.2806 32.1705 19.2778 34.4508ZM27.8791 29.2901C28.8998 29.2901 29.8975 29.5927 30.7462 30.1598C31.5949 30.7269 32.2564 31.5329 32.647 32.4759C33.0376 33.4189 33.1398 34.4565 32.9406 35.4576C32.7415 36.4587 32.25 37.3783 31.5283 38.1C30.8065 38.8217 29.887 39.3133 28.8859 39.5124C27.8848 39.7115 26.8471 39.6093 25.9041 39.2187C24.9611 38.8281 24.1551 38.1666 23.5881 37.318C23.021 36.4693 22.7183 35.4715 22.7183 34.4508C22.7197 33.0825 23.2638 31.7707 24.2314 30.8031C25.1989 29.8356 26.5108 29.2914 27.8791 29.2901ZM33.0398 17.2484C33.0398 16.2277 32.7371 15.2299 32.1701 14.3812C31.603 13.5325 30.797 12.8711 29.854 12.4805C28.911 12.0899 27.8733 11.9877 26.8723 12.1868C25.8712 12.3859 24.9516 12.8774 24.2299 13.5992C23.5081 14.3209 23.0166 15.2405 22.8175 16.2415C22.6184 17.2426 22.7206 18.2803 23.1112 19.2233C23.5018 20.1663 24.1632 20.9723 25.0119 21.5393C25.8606 22.1064 26.8584 22.4091 27.8791 22.4091C29.2474 22.4077 30.5592 21.8636 31.5267 20.896C32.4943 19.9285 33.0384 18.6166 33.0398 17.2484ZM26.1588 17.2484C26.1588 16.9081 26.2597 16.5755 26.4487 16.2926C26.6378 16.0097 26.9064 15.7893 27.2207 15.6591C27.5351 15.5289 27.881 15.4948 28.2147 15.5612C28.5484 15.6275 28.8549 15.7914 29.0955 16.032C29.336 16.2725 29.4999 16.5791 29.5663 16.9128C29.6326 17.2464 29.5986 17.5923 29.4684 17.9067C29.3382 18.221 29.1177 18.4897 28.8348 18.6787C28.5519 18.8677 28.2193 18.9686 27.8791 18.9686C27.423 18.9681 26.9857 18.7868 26.6632 18.4642C26.3407 18.1417 26.1593 17.7045 26.1588 17.2484Z" fill="url(#paint0_linear_1_10687)"/>
<path d="M43.6192 9.93727C43.5184 8.64471 42.9319 7.43828 41.9776 6.56062C41.0233 5.68297 39.7722 5.19919 38.4757 5.2066H17.2823C15.9855 5.19922 14.7341 5.68324 13.7798 6.56125C12.8255 7.43927 12.2392 8.64612 12.1387 9.93899L9.27625 44.3422C9.21677 45.0534 9.30548 45.7693 9.53676 46.4445C9.76804 47.1198 10.1369 47.7397 10.6199 48.2651C11.103 48.7905 11.6898 49.21 12.3433 49.4971C12.9967 49.7842 13.7026 49.9326 14.4163 49.933H31.3195C31.7757 49.933 32.2133 49.7517 32.5359 49.4291C32.8585 49.1065 33.0397 48.669 33.0397 48.2127C33.0397 47.7565 32.8585 47.3189 32.5359 46.9963C32.2133 46.6737 31.7757 46.4925 31.3195 46.4925H14.4163C14.1785 46.4924 13.9432 46.4429 13.7255 46.3472C13.5077 46.2516 13.3121 46.1118 13.1511 45.9367C12.9901 45.7616 12.8671 45.5551 12.79 45.3301C12.7129 45.1051 12.6832 44.8665 12.703 44.6295L15.5689 10.2246C15.6024 9.79379 15.7977 9.39167 16.1155 9.09903C16.4334 8.80639 16.8502 8.64492 17.2823 8.64709H38.4757C38.9077 8.64492 39.3246 8.80639 39.6425 9.09903C39.9603 9.39167 40.1556 9.79379 40.1891 10.2246L43.055 44.6329C43.0742 44.8697 43.0442 45.1079 42.9669 45.3325C42.8895 45.557 42.7665 45.7632 42.6055 45.9379C42.4446 46.1126 42.2492 46.2521 42.0316 46.3475C41.8141 46.443 41.5792 46.4923 41.3416 46.4925H38.2005C37.7442 46.4925 37.3067 46.6737 36.9841 46.9963C36.6615 47.3189 36.4802 47.7565 36.4802 48.2127C36.4802 48.669 36.6615 49.1065 36.9841 49.4291C37.3067 49.7517 37.7442 49.933 38.2005 49.933H41.3416C42.0555 49.9331 42.7616 49.785 43.4154 49.4983C44.0691 49.2115 44.6562 48.7922 45.1396 48.2669C45.6231 47.7416 45.9922 47.1218 46.2238 46.4465C46.4554 45.7713 46.5444 45.0553 46.4852 44.3439L43.6192 9.93727Z" fill="url(#paint1_linear_1_10687)"/>
<defs>
<linearGradient id="paint0_linear_1_10687" x1="27.8791" y1="12.0876" x2="26.3351" y2="47.8754" gradientUnits="userSpaceOnUse">
<stop stop-color="#656565"/>
<stop offset="1" stop-color="#656565" stop-opacity="0"/>
</linearGradient>
<linearGradient id="paint1_linear_1_10687" x1="27.8806" y1="5.20651" x2="26.3912" y2="56.9534" gradientUnits="userSpaceOnUse">
<stop stop-color="#656565"/>
<stop offset="1" stop-color="#656565" stop-opacity="0"/>
</linearGradient>
</defs>
</svg>
