<svg width="59" height="59" viewBox="0 0 59 59" fill="none" xmlns="http://www.w3.org/2000/svg">
<path d="M29.564 42.543C31.7157 42.543 33.8191 41.905 35.6082 40.7095C37.3973 39.5141 38.7918 37.8149 39.6152 35.827C40.4386 33.839 40.6541 31.6516 40.2343 29.5412C39.8145 27.4308 38.7784 25.4923 37.2569 23.9707C35.7353 22.4492 33.7968 21.4131 31.6864 20.9933C29.576 20.5735 27.3885 20.789 25.4006 21.6124C23.4126 22.4358 21.7135 23.8303 20.5181 25.6194C19.3226 27.4085 18.6846 29.5119 18.6846 31.6636C18.6879 34.548 19.8352 37.3133 21.8748 39.3528C23.9143 41.3924 26.6796 42.5397 29.564 42.543ZM29.564 24.4107C30.9985 24.4107 32.4007 24.8361 33.5935 25.633C34.7862 26.43 35.7158 27.5628 36.2648 28.8881C36.8137 30.2134 36.9574 31.6717 36.6775 33.0786C36.3977 34.4855 35.7069 35.7779 34.6926 36.7922C33.6782 37.8066 32.3859 38.4973 30.9789 38.7772C29.572 39.0571 28.1137 38.9134 26.7884 38.3645C25.4631 37.8155 24.3303 36.8859 23.5334 35.6931C22.7364 34.5004 22.311 33.0981 22.311 31.6636C22.313 29.7406 23.0777 27.8969 24.4375 26.5372C25.7973 25.1774 27.641 24.4126 29.564 24.4107Z" fill="url(#paint0_linear_1_10679)"/>
<path d="M47.696 15.3445H39.6L37.5873 12.3273C37.0915 11.5817 36.419 10.9702 35.6297 10.5476C34.8403 10.1249 33.9587 9.90409 33.0633 9.90485H26.0642C25.1683 9.90383 24.2861 10.1247 23.4963 10.5477C22.7066 10.9708 22.0339 11.5828 21.5384 12.3291L19.5257 15.3445H11.4314C9.98914 15.346 8.60637 15.9196 7.58654 16.9394C6.56671 17.9592 5.99314 19.342 5.9917 20.7842V44.3563C5.9917 45.799 6.56481 47.1826 7.58495 48.2027C8.60509 49.2228 9.9887 49.796 11.4314 49.796H15.0579C15.5388 49.796 16 49.6049 16.34 49.2649C16.6801 48.9248 16.8711 48.4636 16.8711 47.9827C16.8711 47.5018 16.6801 47.0406 16.34 46.7006C16 46.3605 15.5388 46.1695 15.0579 46.1695H11.4314C10.9505 46.1695 10.4893 45.9785 10.1492 45.6384C9.8092 45.2984 9.61816 44.8372 9.61816 44.3563V20.7842C9.61816 20.3033 9.8092 19.8421 10.1492 19.5021C10.4893 19.162 10.9505 18.971 11.4314 18.971H20.4976C20.796 18.9711 21.0898 18.8974 21.353 18.7567C21.6162 18.6159 21.8405 18.4124 22.0062 18.1641L24.5556 14.3382C24.7209 14.0896 24.9451 13.8858 25.2084 13.745C25.4716 13.6042 25.7656 13.5308 26.0642 13.5313H33.0633C33.3616 13.5307 33.6554 13.604 33.9186 13.7444C34.1819 13.8849 34.4062 14.0882 34.5719 14.3364L37.1213 18.1623C37.2867 18.4109 37.511 18.6148 37.7741 18.7559C38.0373 18.897 38.3313 18.9709 38.6299 18.971H47.696C48.1769 18.971 48.6381 19.162 48.9782 19.5021C49.3182 19.8421 49.5093 20.3033 49.5093 20.7842V44.3563C49.5093 44.8372 49.3182 45.2984 48.9782 45.6384C48.6381 45.9785 48.1769 46.1695 47.696 46.1695H22.3108C21.8299 46.1695 21.3687 46.3605 21.0286 46.7006C20.6886 47.0406 20.4976 47.5018 20.4976 47.9827C20.4976 48.4636 20.6886 48.9248 21.0286 49.2649C21.3687 49.6049 21.8299 49.796 22.3108 49.796H47.696C49.1383 49.7945 50.5211 49.2209 51.5409 48.2011C52.5607 47.1813 53.1343 45.7985 53.1357 44.3563V20.7842C53.1343 19.342 52.5607 17.9592 51.5409 16.9394C50.5211 15.9196 49.1383 15.346 47.696 15.3445Z" fill="url(#paint1_linear_1_10679)"/>
<defs>
<linearGradient id="paint0_linear_1_10679" x1="29.564" y1="20.7842" x2="29.0845" y2="47.08" gradientUnits="userSpaceOnUse">
<stop stop-color="#656565"/>
<stop offset="1" stop-color="#656565" stop-opacity="0"/>
</linearGradient>
<linearGradient id="paint1_linear_1_10679" x1="29.5637" y1="9.90485" x2="28.8198" y2="58.1182" gradientUnits="userSpaceOnUse">
<stop stop-color="#656565"/>
<stop offset="1" stop-color="#656565" stop-opacity="0"/>
</linearGradient>
</defs>
</svg>
