<svg width="56" height="56" viewBox="0 0 56 56" fill="none" xmlns="http://www.w3.org/2000/svg">
<path d="M36.1632 15.7758L34.6408 6.64473C34.574 6.24305 34.3669 5.87808 34.0563 5.61475C33.7458 5.35142 33.3518 5.20679 32.9446 5.2066H22.6232C22.216 5.20679 21.8221 5.35142 21.5115 5.61475C21.2009 5.87808 20.9938 6.24305 20.927 6.64473L19.4046 15.7758C18.3485 16.0945 17.4226 16.7439 16.7632 17.6284C16.1039 18.5128 15.746 19.5856 15.7422 20.6888V34.4508C15.7436 35.8191 16.2877 37.1309 17.2552 38.0985C18.2228 39.066 19.5346 39.6101 20.9029 39.6115H32.635L31.4876 46.4925H24.0802L23.7465 44.4901C23.7156 44.2619 23.6392 44.0423 23.5218 43.8442C23.4044 43.6461 23.2484 43.4736 23.0631 43.3369C22.8778 43.2001 22.667 43.102 22.4431 43.0483C22.2191 42.9946 21.9867 42.9864 21.7596 43.0242C21.5324 43.062 21.3152 43.145 21.1207 43.2683C20.9262 43.3916 20.7585 43.5527 20.6274 43.742C20.4964 43.9313 20.4046 44.145 20.3577 44.3705C20.3108 44.5959 20.3096 44.8285 20.3542 45.0544L20.927 48.4949C20.9938 48.8965 21.2009 49.2615 21.5115 49.5248C21.8221 49.7882 22.216 49.9328 22.6232 49.933H32.9446C33.3518 49.9328 33.7458 49.7882 34.0563 49.5248C34.3669 49.2615 34.574 48.8965 34.6408 48.4949L36.1632 39.3638C37.2194 39.0451 38.1453 38.3957 38.8046 37.5112C39.4639 36.6267 39.8218 35.5539 39.8256 34.4508V20.6888C39.8218 19.5856 39.4639 18.5128 38.8046 17.6284C38.1453 16.7439 37.2194 16.0945 36.1632 15.7758ZM31.4876 8.64709L32.635 15.5281H22.9328L24.0802 8.64709H31.4876ZM36.3851 34.4508C36.3851 34.907 36.2039 35.3446 35.8813 35.6672C35.5587 35.9898 35.1211 36.171 34.6649 36.171H20.9029C20.4467 36.171 20.0091 35.9898 19.6865 35.6672C19.3639 35.3446 19.1827 34.907 19.1827 34.4508V20.6888C19.1827 20.2326 19.3639 19.795 19.6865 19.4724C20.0091 19.1498 20.4467 18.9686 20.9029 18.9686H34.6649C35.1211 18.9686 35.5587 19.1498 35.8813 19.4724C36.2039 19.795 36.3851 20.2326 36.3851 20.6888V34.4508Z" fill="url(#paint0_linear_1_10674)"/>
<defs>
<linearGradient id="paint0_linear_1_10674" x1="27.7839" y1="5.2066" x2="32.6192" y2="69.5996" gradientUnits="userSpaceOnUse">
<stop stop-color="#656565"/>
<stop offset="1" stop-color="#656565" stop-opacity="0"/>
</linearGradient>
</defs>
</svg>
