<svg width="59" height="59" viewBox="0 0 59 59" fill="none" xmlns="http://www.w3.org/2000/svg">
<path d="M52.9585 33.9787C52.8264 33.7806 52.6565 33.6104 52.4586 33.4779C52.2607 33.3454 52.0387 33.2532 51.8051 33.2066C51.5716 33.16 51.3311 33.1598 51.0975 33.2061C50.8639 33.2524 50.6417 33.3442 50.4436 33.4764L43.8144 37.8971C43.1368 37.3685 42.3388 37.0162 41.4917 36.8716C40.6447 36.727 39.7749 36.7946 38.9604 37.0684L33.3176 29.5453H40.5705C41.0514 29.5453 41.5126 29.3543 41.8527 29.0143C42.1927 28.6742 42.3838 28.213 42.3838 27.7321V13.2263C42.3838 12.7454 42.1927 12.2842 41.8527 11.9441C41.5126 11.6041 41.0514 11.413 40.5705 11.413H18.8118C18.3309 11.413 17.8697 11.6041 17.5296 11.9441C17.1896 12.2842 16.9985 12.7454 16.9985 13.2263V14.3378L8.50535 11.5073C8.23291 11.4166 7.94281 11.3918 7.65894 11.4351C7.37507 11.4784 7.10554 11.5885 6.87254 11.7564C6.63954 11.9242 6.44974 12.145 6.31876 12.4006C6.18777 12.6561 6.11936 12.9391 6.11914 13.2263V27.7321C6.11914 28.213 6.31018 28.6742 6.65022 29.0143C6.99027 29.3543 7.45147 29.5453 7.93237 29.5453C8.12724 29.5455 8.32082 29.5137 8.50535 29.4511L12.1318 28.2416C12.366 28.1733 12.5839 28.0585 12.7727 27.904C12.9614 27.7495 13.117 27.5585 13.2302 27.3425C13.3434 27.1264 13.4119 26.8897 13.4315 26.6466C13.4511 26.4035 13.4214 26.1589 13.3443 25.9275C13.2672 25.6961 13.1441 25.4827 12.9826 25.2999C12.821 25.1172 12.6243 24.9689 12.4041 24.864C12.1839 24.7591 11.9448 24.6997 11.7011 24.6893C11.4574 24.679 11.2142 24.7179 10.9859 24.8037L9.7456 25.2153V15.743L16.9985 18.1582V27.7321C16.9985 28.213 17.1896 28.6742 17.5296 29.0143C17.8697 29.3543 18.3309 29.5453 18.8118 29.5453H28.7845L36.0465 39.2262C35.5287 39.9813 35.209 40.8544 35.1169 41.7653C35.0247 42.6763 35.1631 43.5957 35.5192 44.4392C35.8753 45.2827 36.4377 46.0231 37.1548 46.5924C37.8719 47.1617 38.7206 47.5415 39.6228 47.6971C40.5251 47.8526 41.452 47.7788 42.3183 47.4825C43.1846 47.1861 43.9625 46.6768 44.5804 46.0012C45.1984 45.3256 45.6366 44.5055 45.8548 43.6163C46.0729 42.7271 46.064 41.7974 45.8289 40.9125L52.4563 36.4936C52.6544 36.3615 52.8246 36.1916 52.9571 35.9937C53.0895 35.7958 53.1817 35.5738 53.2284 35.3402C53.275 35.1067 53.2752 34.8662 53.2289 34.6326C53.1826 34.399 53.0907 34.1768 52.9585 33.9787ZM20.625 15.0395H38.7573V25.9189H20.625V15.0395ZM40.5705 44.0512C40.2119 44.0512 39.8614 43.9449 39.5632 43.7456C39.265 43.5464 39.0326 43.2632 38.8953 42.9319C38.7581 42.6005 38.7222 42.236 38.7922 41.8842C38.8621 41.5325 39.0348 41.2094 39.2884 40.9558C39.542 40.7022 39.8651 40.5295 40.2168 40.4596C40.5685 40.3896 40.9331 40.4255 41.2644 40.5628C41.5958 40.7 41.879 40.9324 42.0782 41.2306C42.2774 41.5288 42.3838 41.8793 42.3838 42.238C42.3838 42.7189 42.1927 43.1801 41.8527 43.5201C41.5126 43.8602 41.0514 44.0512 40.5705 44.0512Z" fill="url(#paint0_linear_1_10709)"/>
<defs>
<linearGradient id="paint0_linear_1_10709" x1="29.6913" y1="11.413" x2="29.6913" y2="47.7764" gradientUnits="userSpaceOnUse">
<stop stop-color="#656565"/>
<stop offset="1" stop-color="#656565" stop-opacity="0.38"/>
</linearGradient>
</defs>
</svg>
