<svg width="60" height="61" viewBox="0 0 60 61" fill="none" xmlns="http://www.w3.org/2000/svg">
<path d="M52.7094 11.7476C51.661 10.7046 50.2436 10.1172 48.7649 10.1129H11.5704C10.0907 10.1129 8.67161 10.7007 7.62531 11.747C6.57902 12.7933 5.99121 14.2123 5.99121 15.692V38.0087C5.99269 39.488 6.58097 40.9062 7.62695 41.9522C8.67292 42.9981 10.0912 43.5864 11.5704 43.5879H28.3079V47.3074H22.7287C22.2355 47.3074 21.7625 47.5033 21.4137 47.852C21.0649 48.2008 20.869 48.6738 20.869 49.1671C20.869 49.6603 21.0649 50.1333 21.4137 50.4821C21.7625 50.8309 22.2355 51.0268 22.7287 51.0268H37.6065C38.0998 51.0268 38.5728 50.8309 38.9216 50.4821C39.2703 50.1333 39.4663 49.6603 39.4663 49.1671C39.4663 48.6738 39.2703 48.2008 38.9216 47.852C38.5728 47.5033 38.0998 47.3074 37.6065 47.3074H32.0274V43.5879H33.8871C34.3803 43.5879 34.8533 43.392 35.2021 43.0432C35.5509 42.6944 35.7468 42.2214 35.7468 41.7282C35.7468 41.2349 35.5509 40.7619 35.2021 40.4131C34.8533 40.0644 34.3803 39.8685 33.8871 39.8685H11.5704C11.0773 39.868 10.6046 39.6719 10.2559 39.3232C9.90725 38.9745 9.71115 38.5018 9.71066 38.0087V15.692C9.71066 15.1988 9.9066 14.7258 10.2554 14.377C10.6041 14.0282 11.0772 13.8323 11.5704 13.8323H48.7649C49.2581 13.8323 49.7311 14.0282 50.0799 14.377C50.4287 14.7258 50.6246 15.1988 50.6246 15.692V38.0087C50.6241 38.5018 50.428 38.9745 50.0794 39.3232C49.7307 39.6719 49.258 39.868 48.7649 39.8685H41.326C40.8328 39.8685 40.3597 40.0644 40.011 40.4131C39.6622 40.7619 39.4663 41.2349 39.4663 41.7282C39.4663 42.2214 39.6622 42.6944 40.011 43.0432C40.3597 43.392 40.8328 43.5879 41.326 43.5879H48.7649C50.2441 43.5864 51.6624 42.9981 52.7083 41.9522C53.7543 40.9062 54.3426 39.488 54.3441 38.0087V15.692C54.3397 14.2133 53.7523 12.7959 52.7094 11.7476Z" fill="url(#paint0_linear_1_10704)"/>
<defs>
<linearGradient id="paint0_linear_1_10704" x1="30.1676" y1="10.1129" x2="29.0518" y2="67.7643" gradientUnits="userSpaceOnUse">
<stop stop-color="#656565"/>
<stop offset="1" stop-color="#656565" stop-opacity="0"/>
</linearGradient>
</defs>
</svg>
