<svg width="61" height="42" viewBox="0 0 61 42" fill="none" xmlns="http://www.w3.org/2000/svg">
<path d="M58.4542 11.2269C57.8172 10.5865 57.0596 10.0788 56.2252 9.73296C55.3908 9.38715 54.4961 9.21017 53.5928 9.21223H39.8406C39.2327 9.21223 38.6498 9.45371 38.2199 9.88355C37.7901 10.3134 37.5486 10.8964 37.5486 11.5043C37.5486 12.1122 37.7901 12.6951 38.2199 13.125C38.6498 13.5548 39.2327 13.7963 39.8406 13.7963H53.5928C54.2007 13.7963 54.7837 14.0378 55.2136 14.4676C55.6434 14.8975 55.8849 15.4804 55.8849 16.0883V29.8405C55.8849 30.4484 55.6434 31.0314 55.2136 31.4613C54.7837 31.8911 54.2007 32.1326 53.5928 32.1326H7.75215C7.14427 32.1326 6.56128 31.8911 6.13144 31.4613C5.7016 31.0314 5.46012 30.4484 5.46012 29.8405V16.0883C5.46012 15.4804 5.7016 14.8975 6.13144 14.4676C6.56128 14.0378 7.14427 13.7963 7.75215 13.7963H10.2757C10.8437 16.5789 12.4247 19.0515 14.7121 20.7347C16.9996 22.4179 19.8305 23.1918 22.6562 22.9064C25.4818 22.621 28.1008 21.2965 30.0054 19.1898C31.91 17.0831 32.9645 14.3443 32.9645 11.5043C32.9645 8.66426 31.91 5.92542 30.0054 3.81872C28.1008 1.71203 25.4818 0.387572 22.6562 0.102126C19.8305 -0.18332 16.9996 0.590581 14.7121 2.27379C12.4247 3.957 10.8437 6.4296 10.2757 9.21223H7.75215C5.9285 9.21223 4.17953 9.93668 2.89001 11.2262C1.60049 12.5157 0.876049 14.2647 0.876049 16.0883V29.8405C0.869484 31.2611 1.30811 32.6481 2.13031 33.8065C2.95251 34.965 4.11697 35.8368 5.46012 36.2995V39.0087C5.46012 39.6166 5.7016 40.1996 6.13144 40.6294C6.56128 41.0592 7.14427 41.3007 7.75215 41.3007C8.36004 41.3007 8.94302 41.0592 9.37286 40.6294C9.8027 40.1996 10.0442 39.6166 10.0442 39.0087V36.7166H51.3008V39.0087C51.3008 39.6166 51.5423 40.1996 51.9721 40.6294C52.402 41.0592 52.985 41.3007 53.5928 41.3007C54.2007 41.3007 54.7837 41.0592 55.2136 40.6294C55.6434 40.1996 55.8849 39.6166 55.8849 39.0087V36.2995C57.228 35.8368 58.3925 34.965 59.2147 33.8065C60.0369 32.6481 60.4755 31.2611 60.4689 29.8405V16.0883C60.471 15.1851 60.294 14.2904 59.9482 13.456C59.6024 12.6215 59.0946 11.8639 58.4542 11.2269ZM21.5044 4.62816C22.8643 4.62816 24.1937 5.03144 25.3245 5.787C26.4553 6.54255 27.3366 7.61645 27.857 8.8729C28.3775 10.1293 28.5137 11.5119 28.2483 12.8457C27.983 14.1796 27.3281 15.4048 26.3665 16.3664C25.4049 17.328 24.1796 17.9829 22.8458 18.2482C21.512 18.5136 20.1294 18.3774 18.873 17.857C17.6165 17.3365 16.5426 16.4552 15.7871 15.3244C15.0315 14.1937 14.6283 12.8642 14.6283 11.5043C14.6301 9.68117 15.3551 7.93326 16.6442 6.64414C17.9334 5.35501 19.6813 4.62998 21.5044 4.62816Z" fill="#CACACA"/>
<path d="M39.8404 27.5485C40.4483 27.5485 41.0312 27.307 41.4611 26.8772C41.8909 26.4473 42.1324 25.8644 42.1324 25.2565V20.6724C42.1324 20.0645 41.8909 19.4815 41.4611 19.0517C41.0312 18.6219 40.4483 18.3804 39.8404 18.3804C39.2325 18.3804 38.6495 18.6219 38.2197 19.0517C37.7898 19.4815 37.5483 20.0645 37.5483 20.6724V25.2565C37.5483 25.8644 37.7898 26.4473 38.2197 26.8772C38.6495 27.307 39.2325 27.5485 39.8404 27.5485ZM51.3005 25.2565V20.6724C51.3005 20.0645 51.0591 19.4815 50.6292 19.0517C50.1994 18.6219 49.6164 18.3804 49.0085 18.3804C48.4006 18.3804 47.8176 18.6219 47.3878 19.0517C46.958 19.4815 46.7165 20.0645 46.7165 20.6724V25.2565C46.7165 25.8644 46.958 26.4473 47.3878 26.8772C47.8176 27.307 48.4006 27.5485 49.0085 27.5485C49.6164 27.5485 50.1994 27.307 50.6292 26.8772C51.0591 26.4473 51.3005 25.8644 51.3005 25.2565Z" fill="#CACACA"/>
</svg>
