<svg width="21" height="19" viewBox="0 0 21 19" fill="none" xmlns="http://www.w3.org/2000/svg">
<path d="M15.2335 0.875C16.5187 0.875 17.7549 1.38292 18.6644 2.29429C19.5748 3.20375 20.0837 4.43042 20.0837 5.71458V13.2854C20.0837 15.9592 17.9082 18.125 15.2335 18.125H5.76616C3.09145 18.125 0.916992 15.9592 0.916992 13.2854V5.71458C0.916992 3.04083 3.08187 0.875 5.76616 0.875H15.2335ZM16.3174 5.85833C16.1162 5.84779 15.9245 5.91583 15.7798 6.05L11.4587 9.5C10.9028 9.96096 10.1065 9.96096 9.54199 9.5L5.22949 6.05C4.93145 5.82958 4.51937 5.85833 4.27116 6.11708C4.01241 6.37583 3.98366 6.78792 4.20312 7.07542L4.32866 7.2L8.68907 10.6021C9.22574 11.0237 9.87645 11.2537 10.5578 11.2537C11.2373 11.2537 11.8995 11.0237 12.4352 10.6021L16.7582 7.1425L16.8349 7.06583C17.064 6.78792 17.064 6.38542 16.8244 6.1075C16.6912 5.96471 16.5081 5.8775 16.3174 5.85833Z" fill="white"/>
</svg>
