<svg width="17" height="20" viewBox="0 0 17 20" fill="none" xmlns="http://www.w3.org/2000/svg">
<path fill-rule="evenodd" clip-rule="evenodd" d="M8.73926 0.916687C13.0987 0.916687 16.6455 4.49031 16.6455 8.88331C16.6455 14.2835 10.4585 19.6042 8.73926 19.6042C7.02001 19.6042 0.833008 14.2835 0.833008 8.88331C0.833008 4.49031 4.3798 0.916687 8.73926 0.916687ZM8.73926 2.35419C5.17234 2.35419 2.27051 5.28381 2.27051 8.88331C2.27051 13.4632 7.66017 17.9252 8.73926 18.1629C9.81834 17.9242 15.208 13.4622 15.208 8.88331C15.208 5.28381 12.3062 2.35419 8.73926 2.35419ZM8.74022 5.70835C10.4575 5.70835 11.8548 7.1056 11.8548 8.8239C11.8548 10.5412 10.4575 11.9375 8.74022 11.9375C7.02288 11.9375 5.62563 10.5412 5.62563 8.8239C5.62563 7.1056 7.02288 5.70835 8.74022 5.70835ZM8.74022 7.14585C7.81542 7.14585 7.06313 7.89815 7.06313 8.8239C7.06313 9.74869 7.81542 10.5 8.74022 10.5C9.66501 10.5 10.4173 9.74869 10.4173 8.8239C10.4173 7.89815 9.66501 7.14585 8.74022 7.14585Z" fill="white"/>
</svg>
